<svg width="20" height="20" viewBox="0 0 20 20" fill="none" xmlns="http://www.w3.org/2000/svg">
<rect x="2" y="5" width="16" height="1" fill="white"/>
<rect x="2" y="16.5" width="16" height="1" fill="#FAFAFA"/>
<rect x="18" y="11.5" width="16" height="1" transform="rotate(-180 18 11.5)" fill="#FAFAFA"/>
<circle cx="12.5" cy="5.5" r="1" fill="#FAFAFA" stroke="white"/>
<circle cx="12.5" cy="17" r="1" fill="#FAFAFA" stroke="white"/>
<mask id="path-6-inside-1_13285_3352" fill="white">
<ellipse cx="6.5" cy="11" rx="1.5" ry="1.5" transform="rotate(-180 6.5 11)"/>
</mask>
<ellipse cx="6.5" cy="11" rx="1.5" ry="1.5" transform="rotate(-180 6.5 11)" fill="#FAFAFA"/>
<path d="M7 11C7 11.2761 6.77614 11.5 6.5 11.5L6.5 7.5C4.567 7.5 3 9.067 3 11L7 11ZM6.5 11.5C6.22386 11.5 6 11.2761 6 11L10 11C10 9.067 8.433 7.5 6.5 7.5L6.5 11.5ZM6 11C6 10.7239 6.22386 10.5 6.5 10.5L6.5 14.5C8.433 14.5 10 12.933 10 11L6 11ZM6.5 10.5C6.77614 10.5 7 10.7239 7 11L3 11C3 12.933 4.567 14.5 6.5 14.5L6.5 10.5Z" fill="white" mask="url(#path-6-inside-1_13285_3352)"/>
</svg>
