<svg width="76" height="32" viewBox="0 0 76 32" fill="none" xmlns="http://www.w3.org/2000/svg">
<rect x="0.5" y="0.5" width="31" height="31" rx="1.5" fill="white"/>
<path d="M20.1945 20.1947C17.3728 23.0164 13.4797 23.3793 11.4759 21.3755C9.47205 19.3717 9.83499 15.4786 12.6567 12.6569C15.4784 9.83514 19.3715 9.47221 21.3754 11.476C23.3792 13.4798 23.0162 17.373 20.1945 20.1947Z" stroke="#2D2D2D"/>
<path d="M13.8541 11.1338L10.4165 11.1318L11.275 9.64271L13.8523 8.15469L15.5711 8.15572L13.8541 11.1338Z" stroke="#2D2D2D"/>
<rect x="0.5" y="0.5" width="31" height="31" rx="1.5" stroke="#2D2D2D"/>
<rect x="44.5" y="0.5" width="31" height="31" rx="1.5" fill="white"/>
<path d="M62.8948 10.1831C66.2933 12.1452 67.5529 16.115 65.8822 19.0088C64.2114 21.9026 60.1437 22.7967 56.7452 20.8346C53.3467 18.8724 52.0871 14.9026 53.7578 12.0088C55.4286 9.11502 59.4963 8.22097 62.8948 10.1831Z" stroke="#DBDEE6"/>
<path d="M54.9644 20.0709L55.2612 23.9829L53.3052 23.8345L51.2009 21.7302L51.0525 19.7742L54.9644 20.0709Z" stroke="#DBDEE6"/>
<rect x="44.5" y="0.5" width="31" height="31" rx="1.5" stroke="#DBDEE6"/>
</svg>
